# xmcd
#
# Track frame offsets:
#	151
#	14607
#	33209
#	50724
#	62472
#	74102
#	89204
#	104591
#	118450
#	133407
#	148267
#	163581
#	177254
#	188657
#
# Disc length: 2704 seconds
#
# Revision: 0
# Processed by: cddbd v1.5.2PL0 Copyright (c) Steve Scherf et al.
# Submitted via: dBpowerAMP V4.0
#
DISCID=e20a8e0e
DTITLE=Charley Pride - Pride And Joy
DYEAR=2006
DGENRE=Country
TTITLE0=God's Coloring Book (Featuring Dolly Parton)
TTITLE1=Jesus, It's Me Again
TTITLE2=Mansions For Me
TTITLE3=I'm Gonna Sing
TTITLE4=He Set Me Free
TTITLE5=Amazing Grace
TTITLE6=Family Bible (Featuring Willie Nelson)
TTITLE7=Just A Closer Walk With Thee
TTITLE8=Take My Hand Precious Lord
TTITLE9=One Day At A Time
TTITLE10=Nobody Answered Me
TTITLE11=Jesus Hold My Hand
TTITLE12=Thank God
TTITLE13=Gospel Medley:
EXTD=
EXTT0=
EXTT1=
EXTT2=
EXTT3=
EXTT4=
EXTT5=
EXTT6=
EXTT7=
EXTT8=
EXTT9=
EXTT10=
EXTT11=
EXTT12=
EXTT13=
PLAYORDER=
